<svg xmlns="http://www.w3.org/2000/svg" xmlns:xlink="http://www.w3.org/1999/xlink" width="320" height="320" viewBox="0 0 320 320">
  <defs>
    <linearGradient id="linear-gradient" x1="0.5" x2="0.5" y2="1" gradientUnits="objectBoundingBox">
      <stop offset="0" stop-color="#48484a"/>
      <stop offset="1" stop-color="#0e0e0f"/>
    </linearGradient>
  </defs>
  <g id="App_Icon" data-name="App Icon" transform="translate(-2450 -15872)">
    <g id="Background" transform="translate(2450 15872)" fill="url(#linear-gradient)">
      <path d="M 248 319 L 72 319 C 62.41462326049805 319 53.11650085449219 317.1229248046875 44.36391830444336 313.4208679199219 C 40.15708160400391 311.6415405273438 36.0994987487793 309.4391784667969 32.30391693115234 306.8749084472656 C 28.54412460327148 304.3348388671875 25.00858306884766 301.4176940917969 21.7954158782959 298.20458984375 C 18.5822925567627 294.9914245605469 15.6651668548584 291.4558715820312 13.12508296966553 287.6960754394531 C 10.56083297729492 283.9005126953125 8.358458518981934 279.8429260253906 6.579124927520752 275.6360778808594 C 2.877083301544189 266.8835144042969 1 257.5853881835938 1 248 L 1 72 C 1 62.41462326049805 2.877083301544189 53.11650085449219 6.579124927520752 44.36391830444336 C 8.358458518981934 40.15708160400391 10.56083297729492 36.0994987487793 13.12508296966553 32.30391693115234 C 15.6651668548584 28.54412460327148 18.5822925567627 25.00858306884766 21.7954158782959 21.7954158782959 C 25.00858306884766 18.5822925567627 28.54412460327148 15.6651668548584 32.30391693115234 13.12508296966553 C 36.0994987487793 10.56083297729492 40.15708160400391 8.358458518981934 44.36391830444336 6.579124927520752 C 53.11650085449219 2.877083301544189 62.41462326049805 1 72 1 L 248 1 C 257.5853881835938 1 266.8835144042969 2.877083301544189 275.6360778808594 6.579124927520752 C 279.8429260253906 8.358458518981934 283.9005126953125 10.56083297729492 287.6960754394531 13.12508296966553 C 291.4558715820312 15.6651668548584 294.9914245605469 18.5822925567627 298.20458984375 21.7954158782959 C 301.4176940917969 25.00858306884766 304.3348388671875 28.54412460327148 306.8749084472656 32.30391693115234 C 309.4391784667969 36.0994987487793 311.6415405273438 40.15708160400391 313.4208679199219 44.36391830444336 C 317.1229248046875 53.11650085449219 319 62.41462326049805 319 72 L 319 248 C 319 257.5853881835938 317.1229248046875 266.8835144042969 313.4208679199219 275.6360778808594 C 311.6415405273438 279.8429260253906 309.4391784667969 283.9005126953125 306.8749084472656 287.6960754394531 C 304.3348388671875 291.4558715820312 301.4176940917969 294.9914245605469 298.20458984375 298.20458984375 C 294.9914245605469 301.4176940917969 291.4558715820312 304.3348388671875 287.6960754394531 306.8749084472656 C 283.9005126953125 309.4391784667969 279.8429260253906 311.6415405273438 275.6360778808594 313.4208679199219 C 266.8835144042969 317.1229248046875 257.5853881835938 319 248 319 Z" stroke="none"/>
      <path d="M 72 2 C 62.54916381835938 2 53.38211059570312 3.850494384765625 44.75344848632812 7.5001220703125 C 40.6060791015625 9.254302978515625 36.6058349609375 11.42562866210938 32.86373901367188 13.95370483398438 C 29.15667724609375 16.45816040039062 25.670654296875 19.33438110351562 22.50253295898438 22.50253295898438 C 19.33438110351562 25.670654296875 16.45816040039062 29.15667724609375 13.95370483398438 32.86373901367188 C 11.42562866210938 36.6058349609375 9.254302978515625 40.6060791015625 7.5001220703125 44.75344848632812 C 3.850494384765625 53.38211059570312 2 62.54916381835938 2 72 L 2 248 C 2 257.4508361816406 3.850494384765625 266.6178588867188 7.5001220703125 275.2465515136719 C 9.254302978515625 279.3939208984375 11.42562866210938 283.3941650390625 13.95370483398438 287.1362609863281 C 16.45816040039062 290.8433227539062 19.33438110351562 294.329345703125 22.50253295898438 297.4974670410156 C 25.670654296875 300.6656188964844 29.15667724609375 303.5418395996094 32.86373901367188 306.0462951660156 C 36.6058349609375 308.5743713378906 40.6060791015625 310.7456970214844 44.75344848632812 312.4998779296875 C 53.38211059570312 316.1495056152344 62.54916381835938 318 72 318 L 248 318 C 257.4508361816406 318 266.6178588867188 316.1495056152344 275.2465515136719 312.4998779296875 C 279.3939208984375 310.7456970214844 283.3941650390625 308.5743713378906 287.1362609863281 306.0462951660156 C 290.8433227539062 303.5418395996094 294.329345703125 300.6656188964844 297.4974670410156 297.4974670410156 C 300.6656188964844 294.329345703125 303.5418395996094 290.8433227539062 306.0462951660156 287.1362609863281 C 308.5743713378906 283.3941650390625 310.7456970214844 279.3939208984375 312.4998779296875 275.2465515136719 C 316.1495056152344 266.6178588867188 318 257.4508361816406 318 248 L 318 72 C 318 62.54916381835938 316.1495056152344 53.38211059570312 312.4998779296875 44.75344848632812 C 310.7456970214844 40.6060791015625 308.5743713378906 36.6058349609375 306.0462951660156 32.86373901367188 C 303.5418395996094 29.15667724609375 300.6656188964844 25.670654296875 297.4974670410156 22.50253295898438 C 294.329345703125 19.33438110351562 290.8433227539062 16.45816040039062 287.1362609863281 13.95370483398438 C 283.3941650390625 11.42562866210938 279.3939208984375 9.254302978515625 275.2465515136719 7.5001220703125 C 266.6178588867188 3.850494384765625 257.4508361816406 2 248 2 L 72 2 M 72 0 L 248 0 C 287.7644958496094 0 320 32.23550415039062 320 72 L 320 248 C 320 287.7644958496094 287.7644958496094 320 248 320 L 72 320 C 32.23550415039062 320 0 287.7644958496094 0 248 L 0 72 C 0 32.23550415039062 32.23550415039062 0 72 0 Z" stroke="none" fill="#1d84de"/>
    </g>
    <g id="Shadow">
      <g id="Ellipse_23" data-name="Ellipse 23" transform="translate(2471 15893)" fill="#fff" stroke="#1d84de" stroke-width="2" opacity="0.047">
        <circle cx="139" cy="139" r="139" stroke="none"/>
        <circle cx="139" cy="139" r="138" fill="none"/>
      </g>
      <g id="Ellipse_24" data-name="Ellipse 24" transform="translate(2524 15946)" fill="#fff" stroke="#1d84de" stroke-width="2" opacity="0.049">
        <circle cx="86" cy="86" r="86" stroke="none"/>
        <circle cx="86" cy="86" r="85" fill="none"/>
      </g>
      <g id="Ellipse_25" data-name="Ellipse 25" transform="translate(2550 15972)" fill="#fff" stroke="#1d84de" stroke-width="2" opacity="0.051">
        <circle cx="60" cy="60" r="60" stroke="none"/>
        <circle cx="60" cy="60" r="59" fill="none"/>
      </g>
    </g>
    <g id="logo" transform="translate(-2561.184 15411.612)">
      <ellipse id="Ellipse_10" data-name="Ellipse 10" cx="103.185" cy="70.166" rx="103.185" ry="70.166" transform="translate(5068 594.156)" fill="#fff"/>
      <g id="Ellipse_11" data-name="Ellipse 11" transform="translate(5117.528 627.176)" stroke="#2f7cf6" stroke-width="8">
        <circle cx="24.764" cy="24.764" r="24.764" stroke="none"/>
        <circle cx="24.764" cy="24.764" r="28.764" fill="none"/>
      </g>
      <path id="Path_25" data-name="Path 25" d="M5044.322,608.152V582.323l2.434-18.185,1.989-11.686,2.188-8.909,2.109-6.276,2.161-7.688,3.308-6.918,6.674-9.723,16.756-16.6" transform="translate(68.861 1.582)" fill="none" stroke="#fff" stroke-linecap="round" stroke-linejoin="round" stroke-width="5"/>
      <path id="Path_26" data-name="Path 26" d="M5044.322,588.217v-22.6l1.324-12.517,1.2-9.865,2.638-8.152,3.382-8.487,3.994-6.667,5.551-9.132,11.572-8.991,13.823-4.669" transform="translate(99.391 23.881)" fill="none" stroke="#fff" stroke-linecap="round" stroke-linejoin="round" stroke-width="5"/>
      <path id="Path_27" data-name="Path 27" d="M5062.665,520.783l5.621,5.56,2.4,5.194v4.351" transform="translate(184.179 187.849)" fill="none" stroke="#fff" stroke-linecap="round" stroke-width="5"/>
      <path id="Path_28" data-name="Path 28" d="M5062.665,520.783l5.621,5.56,2.4,5.194v4.351" transform="translate(167.67 197.189)" fill="none" stroke="#fff" stroke-linecap="round" stroke-width="5"/>
      <path id="Path_29" data-name="Path 29" d="M0,0,5.618,5.56l2.4,5.194V15.1" transform="matrix(-0.616, -0.788, 0.788, -0.616, 5097.096, 728.757)" fill="none" stroke="#fff" stroke-linecap="round" stroke-width="5"/>
      <path id="Path_30" data-name="Path 30" d="M0,0,5.618,5.56l2.4,5.194V15.1" transform="matrix(-0.616, -0.788, 0.788, -0.616, 5114.046, 736.565)" fill="none" stroke="#fff" stroke-linecap="round" stroke-width="5"/>
      <rect id="Rectangle_79" data-name="Rectangle 79" width="44.673" height="8.255" rx="4.127" transform="translate(5121.331 494.986) rotate(34)" fill="#fff"/>
      <rect id="Rectangle_80" data-name="Rectangle 80" width="44.673" height="8.255" rx="4.127" transform="translate(5109.736 510.899) rotate(34)" fill="#fff"/>
      <rect id="Rectangle_81" data-name="Rectangle 81" width="33.696" height="8.255" rx="4.127" transform="matrix(0.545, 0.839, -0.839, 0.545, 5152.651, 526.345)" fill="#fff"/>
      <rect id="Rectangle_82" data-name="Rectangle 82" width="33.696" height="8.255" rx="4.127" transform="translate(5173.499 510.899) rotate(77)" fill="#fff"/>
      <circle id="Ellipse_12" data-name="Ellipse 12" cx="8.255" cy="8.255" r="8.255" transform="translate(5142.292 635.43)" fill="#fff"/>
    </g>
  </g>
</svg>
