<svg id="indstillinger" xmlns="http://www.w3.org/2000/svg" width="24" height="24" viewBox="0 0 24 24">
  <g id="home-icon" stroke="#fff" stroke-width="1">
    <circle cx="12" cy="12" r="12" stroke="none"/>
    <circle cx="12" cy="12" r="11.5" fill="none"/>
  </g>
  <rect id="Rectangle_88" data-name="Rectangle 88" width="3" height="3" transform="translate(8 12)"/>
  <path id="Union_3" data-name="Union 3" d="M15224.5,17794a1,1,0,0,1-1-1v-1.342a5.686,5.686,0,0,1-.586-.242l-.95.951a1.006,1.006,0,0,1-1.416,0l-1.411-1.416a1,1,0,0,1,0-1.416l.947-.947a6.2,6.2,0,0,1-.243-.588h-1.342a1,1,0,0,1-1-1v-2a1,1,0,0,1,1-1h1.343a5.723,5.723,0,0,1,.242-.586l-.947-.945a1,1,0,0,1,0-1.416l1.416-1.416a.993.993,0,0,1,1.411,0l.95.951a5.686,5.686,0,0,1,.586-.242V17779a1,1,0,0,1,1-1h2a1,1,0,0,1,1,1v1.344a5.889,5.889,0,0,1,.583.24l.949-.949a1.006,1.006,0,0,1,1.416,0l1.415,1.416a1.006,1.006,0,0,1,0,1.416l-.949.949a5.651,5.651,0,0,1,.241.582h1.343a1,1,0,0,1,1,1v2a1,1,0,0,1-1,1h-1.342c-.071.2-.151.395-.242.586l.949.949a1.006,1.006,0,0,1,0,1.416l-1.415,1.41a.989.989,0,0,1-1.411,0l-.948-.947a5.658,5.658,0,0,1-.589.244V17793a1,1,0,0,1-1,1Z" transform="translate(-15213.498 -17774)" fill="#fff"/>
  <g id="Path_45" data-name="Path 45" transform="translate(9.001 9)">
    <path d="M 3 5.5 C 1.621500015258789 5.5 0.5 4.378499984741211 0.5 3 C 0.5 1.621500015258789 1.621500015258789 0.5 3 0.5 C 4.378499984741211 0.5 5.5 1.621500015258789 5.5 3 C 5.5 4.378499984741211 4.378499984741211 5.5 3 5.5 Z" stroke="none"/>
    <path d="M 3 1 C 1.897200107574463 1 1 1.897200107574463 1 3 C 1 4.102799892425537 1.897200107574463 5 3 5 C 4.102799892425537 5 5 4.102799892425537 5 3 C 5 1.897200107574463 4.102799892425537 1 3 1 M 3 0 C 4.65684986114502 0 6 1.34315013885498 6 3 C 6 4.65684986114502 4.65684986114502 6 3 6 C 1.34315013885498 6 0 4.65684986114502 0 3 C 0 1.34315013885498 1.34315013885498 0 3 0 Z" stroke="none" fill="#007aff"/>
  </g>
</svg>
