<svg xmlns="http://www.w3.org/2000/svg" width="26" height="26" viewBox="0 0 26 26">
  <g id="lopper" transform="translate(1 1)">
    <g id="home-icon" transform="translate(0)" fill="#fff" stroke="#fff" stroke-width="1">
      <circle cx="12" cy="12" r="12" stroke="none"/>
      <circle cx="12" cy="12" r="12.5" fill="none"/>
    </g>
    <g id="Subtraction_1" data-name="Subtraction 1" transform="translate(0 0)">
      <path d="M 4.690840721130371 22.16572952270508 L 4.140360832214355 21.72206115722656 L 4.139260768890381 21.72117042541504 C 1.190850734710693 19.33234024047852 -0.4999993145465851 15.78908061981201 -0.4999993145465851 11.99970054626465 C -0.4999993145465851 8.661190032958984 0.800270676612854 5.522310256958008 3.161280632019043 3.161280393600464 C 5.522310733795166 0.8002703189849854 8.661190986633301 -0.4999996721744537 11.99970054626465 -0.4999996721744537 C 15.33860111236572 -0.4999996721744537 18.47775077819824 0.8002603650093079 20.83889007568359 3.161270380020142 C 23.19999122619629 5.522250175476074 24.50030136108398 8.661129951477051 24.50030136108398 11.99970054626465 C 24.50030136108398 15.78977012634277 22.80898094177246 19.33274078369141 19.86001014709473 21.72014045715332 L 19.31023979187012 22.16522026062012 L 19.0740909576416 21.49846076965332 C 18.01521110534668 18.50885009765625 15.17223072052002 16.50020027160645 11.99970054626465 16.50020027160645 C 8.826420783996582 16.50020027160645 5.984010696411133 18.50895118713379 4.92672061920166 21.49872016906738 L 4.690840721130371 22.16572952270508 Z" stroke="none"/>
      <path d="M 4.454860687255859 21.33336067199707 L 4.455330848693848 21.3320198059082 C 5.583110809326172 18.14290046691895 8.614960670471191 16.00020027160645 11.99970054626465 16.00020027160645 C 15.38414096832275 16.00020027160645 18.41590118408203 18.14252090454102 19.54540061950684 21.33152961730957 C 22.37655067443848 19.03951072692871 24.00030136108398 15.63819026947021 24.00030136108398 11.99970054626465 C 24.00030136108398 8.794690132141113 22.75200080871582 5.781370162963867 20.4853515625 3.514830350875854 C 18.21865081787109 1.248260378837585 15.2050609588623 3.359985214501648e-07 11.99970054626465 3.359985214501648e-07 C 8.794731140136719 3.359985214501648e-07 5.781420707702637 1.248260378837585 3.514830589294434 3.514830350875854 C 1.248260736465454 5.781420230865479 6.805419729971618e-07 8.794730186462402 6.805419729971618e-07 11.99970054626465 C 6.805419729971618e-07 15.63757038116455 1.62333071231842 19.03923034667969 4.453760623931885 21.33246994018555 L 4.454860687255859 21.33336067199707 M 4.926360607147217 22.99945068359375 L 3.82477068901062 22.1098804473877 C 0.7583706974983215 19.62545967102051 -0.9999993443489075 15.94058990478516 -0.9999993443489075 11.99970054626465 C -0.9999993443489075 8.527630805969238 0.3522706925868988 5.263190269470215 2.80772066116333 2.807730436325073 C 5.263190746307373 0.3522703349590302 8.527630805969238 -0.9999996423721313 11.99970054626465 -0.9999996423721313 C 15.4721508026123 -0.9999996423721313 18.73686027526855 0.3522703349590302 21.19244003295898 2.807700395584106 C 23.64797973632812 5.263120174407959 25.00030136108398 8.527570724487305 25.00030136108398 11.99970054626465 C 25.00030136108398 15.94136047363281 23.24141120910645 19.6259708404541 20.17462158203125 22.10876083374023 L 19.0750904083252 22.99891090393066 L 18.60278129577637 21.66539001464844 C 17.61445999145508 18.875 14.9608907699585 17.00020027160645 11.99970054626465 17.00020027160645 C 9.037870407104492 17.00020027160645 6.384900569915771 18.87500953674316 5.398120880126953 21.66542053222656 L 4.926360607147217 22.99945068359375 Z" stroke="none" fill="#fff"/>
    </g>
    <g id="home-icon-2" data-name="home-icon" transform="translate(7 5)" fill="#fff" stroke="#fff" stroke-width="1">
      <circle cx="5" cy="5" r="5" stroke="none"/>
      <circle cx="5" cy="5" r="5.5" fill="none"/>
    </g>
  </g>
</svg>
