<svg id="marked" xmlns="http://www.w3.org/2000/svg" width="24" height="24" viewBox="0 0 24 24">
  <g id="home-icon" stroke="#fff" stroke-width="1">
    <circle cx="12" cy="12" r="12" stroke="none"/>
    <circle cx="12" cy="12" r="11.5" fill="none"/>
  </g>
  <g id="Group_337" data-name="Group 337" transform="translate(4 5.253)">
    <g id="Subtraction_3" data-name="Subtraction 3" transform="translate(2.499 3.493)" fill="#fff">
      <path d="M 3.499600410461426 9.500775337219238 L 0.5000003576278687 9.500024795532227 L 0.5000003576278687 0.5000001192092896 L 10.49980068206787 0.5000001192092896 L 10.49980068206787 9.499025344848633 L 7.500200271606445 9.499774932861328 L 7.500200271606445 6.00029993057251 L 7.500200271606445 5.50029993057251 L 7.000200271606445 5.50029993057251 L 3.999600410461426 5.50029993057251 L 3.499600410461426 5.50029993057251 L 3.499600410461426 6.00029993057251 L 3.499600410461426 9.500775337219238 Z" stroke="none"/>
      <path d="M 2.999600410461426 9.000650405883789 L 2.999600410461426 5.00029993057251 L 8.000200271606445 5.00029993057251 L 8.000200271606445 8.999650001525879 L 9.999800682067871 8.999150276184082 L 9.999800682067871 1.00000011920929 L 1.000000357627869 1.00000011920929 L 1.000000357627869 9.000149726867676 L 2.999600410461426 9.000650405883789 M 3.999600410461426 10.00090026855469 L 3.410339388665307e-07 9.999899864196777 L 3.410339388665307e-07 1.342773430224042e-07 L 10.99980068206787 1.342773430224042e-07 L 10.99980068206787 9.998900413513184 L 7.000200271606445 9.999899864196777 L 7.000200271606445 6.00029993057251 L 3.999600410461426 6.00029993057251 L 3.999600410461426 10.00090026855469 Z" stroke="none" fill="#fff"/>
    </g>
    <g id="Ellipse_13" data-name="Ellipse 13" transform="translate(10.499 2.493)" fill="#fff" stroke="#3481f3" stroke-width="1">
      <circle cx="2" cy="2" r="2" stroke="none"/>
      <circle cx="2" cy="2" r="1.5" fill="none"/>
    </g>
    <g id="Ellipse_14" data-name="Ellipse 14" transform="translate(7.499 2.493)" fill="#fff" stroke="#3481f3" stroke-width="1">
      <circle cx="2" cy="2" r="2" stroke="none"/>
      <circle cx="2" cy="2" r="1.5" fill="none"/>
    </g>
    <g id="Ellipse_15" data-name="Ellipse 15" transform="translate(4.499 2.493)" fill="#fff" stroke="#3481f3" stroke-width="1">
      <circle cx="2" cy="2" r="2" stroke="none"/>
      <circle cx="2" cy="2" r="1.5" fill="none"/>
    </g>
    <g id="Ellipse_16" data-name="Ellipse 16" transform="translate(1.499 2.493)" fill="#fff" stroke="#3481f3" stroke-width="1">
      <circle cx="2" cy="2" r="2" stroke="none"/>
      <circle cx="2" cy="2" r="1.5" fill="none"/>
    </g>
    <g id="Path_32" data-name="Path 32" transform="translate(0.499 -0.507)" fill="#fff">
      <path d="M 14.22247123718262 4.499998092651367 L 0.776289701461792 4.499998092651367 L 2.363059282302856 1.006837964057922 L 12.62962913513184 1.006837964057922 L 14.22247123718262 4.499998092651367 Z" stroke="none"/>
      <path d="M 2.685108184814453 1.506838083267212 L 1.552589416503906 3.999998092651367 L 13.44495582580566 3.999998092651367 L 12.30810356140137 1.506838083267212 L 2.685108184814453 1.506838083267212 M 2.041020393371582 0.5068378448486328 L 12.95116996765137 0.5068378448486328 L 15 4.999998092651367 L 0 4.999998092651367 L 2.041020393371582 0.5068378448486328 Z" stroke="none" fill="#fff"/>
    </g>
    <g id="Rectangle_92" data-name="Rectangle 92" transform="translate(0 3.747)" fill="#fff" stroke="#3481f3" stroke-width="1">
      <rect width="16" height="1" stroke="none"/>
      <rect x="0.5" y="0.5" width="15" fill="none"/>
    </g>
  </g>
</svg>
