<svg xmlns="http://www.w3.org/2000/svg" width="28.872" height="24" viewBox="0 0 28.872 24">
  <path id="store-solid" d="M28.272,5.559,25.23.7A1.5,1.5,0,0,0,23.96,0H5.022a1.5,1.5,0,0,0-1.27.7L.71,5.559a4.182,4.182,0,0,0,2.756,6.394A4.871,4.871,0,0,0,4.108,12a4.629,4.629,0,0,0,3.459-1.552,4.632,4.632,0,0,0,6.919,0,4.632,4.632,0,0,0,6.919,0A4.644,4.644,0,0,0,24.865,12a4.819,4.819,0,0,0,.642-.042,4.178,4.178,0,0,0,2.766-6.394Zm-3.4,7.941a5.947,5.947,0,0,1-1.383-.178V18h-18V13.322a6.21,6.21,0,0,1-1.383.178,6.325,6.325,0,0,1-.844-.056,5.9,5.9,0,0,1-.769-.169V22.5A1.5,1.5,0,0,0,4,24H25a1.5,1.5,0,0,0,1.5-1.5V13.275a4.786,4.786,0,0,1-.769.169,6.519,6.519,0,0,1-.853.056Z" transform="translate(-0.056)" fill="#fff"/>
</svg>
