<svg xmlns="http://www.w3.org/2000/svg" width="24" height="24" viewBox="0 0 24 24">
  <g id="placer" transform="translate(-0.482)">
    <g id="home-icon" transform="translate(0.481)" stroke="#fff" stroke-width="1">
      <circle cx="12" cy="12" r="12" stroke="none"/>
      <circle cx="12" cy="12" r="11.5" fill="none"/>
    </g>
    <g id="place" transform="translate(8 6)">
      <g id="Ellipse_19" data-name="Ellipse 19" transform="translate(2.481 8)" stroke="#007aff" stroke-width="1">
        <circle cx="2" cy="2" r="2" stroke="none"/>
        <circle cx="2" cy="2" r="1.5" fill="none"/>
      </g>
      <g id="Union_2" data-name="Union 2" transform="translate(0.481 0)" fill="#fff">
        <path d="M 3.998965263366699 9.187399864196777 L 1.602650046348572 6.127810001373291 L 1.576939940452576 6.094989776611328 L 1.546159982681274 6.066880226135254 C 0.8715299963951111 5.450860023498535 0.5 4.628089904785156 0.5 3.750139951705933 C 0.5 1.958009958267212 2.070230007171631 0.5 4.00029993057251 0.5 C 5.930039882659912 0.5 7.5 1.958009958267212 7.5 3.750139951705933 C 7.5 4.65408992767334 7.109640121459961 5.493790149688721 6.400819778442383 6.114570140838623 L 6.3649001121521 6.14601993560791 L 6.33558988571167 6.183710098266602 L 3.998965263366699 9.187399864196777 Z" stroke="none"/>
        <path d="M 3.997621536254883 8.374801635742188 L 5.999569892883301 5.801340103149414 L 6.071400165557861 5.738430023193359 C 6.670219898223877 5.213990211486816 7 4.507870197296143 7 3.750139951705933 C 7 2.233710050582886 5.654339790344238 1 4.00029993057251 1 C 2.345930099487305 1 1 2.233710050582886 1 3.750139951705933 C 1 4.485879898071289 1.313699960708618 5.177519798278809 1.883309960365295 5.697659969329834 L 1.94488000869751 5.753870010375977 L 3.997621536254883 8.374801635742188 M 4.00029993057251 10 L 1.209010004997253 6.436110019683838 C 0.4631699919700623 5.755060195922852 0 4.803390026092529 0 3.750139951705933 C 0 1.67903995513916 1.791049957275391 0 4.00029993057251 0 C 6.209559917449951 0 8 1.67903995513916 8 3.750139951705933 C 8 4.831830024719238 7.511600017547607 5.806399822235107 6.730239868164062 6.490709781646729 L 4.00029993057251 10 Z" stroke="none" fill="#fff"/>
      </g>
      <circle id="Ellipse_18" data-name="Ellipse 18" cx="2" cy="2" r="2" transform="translate(2.481 2)"/>
    </g>
  </g>
</svg>
