<svg id="search" xmlns="http://www.w3.org/2000/svg" width="27.07" height="27.072" viewBox="0 0 27.07 27.072">
  <path id="Path_1" data-name="Path 1" d="M1.939-.061a2,2,0,0,1,2,2v11h-4v-11A2,2,0,0,1,1.939-.061Z" transform="translate(15.136 17.879) rotate(-45)" fill="#fff"/>
  <path id="Path_2" data-name="Path 2" d="M.969-.031a.931.931,0,0,1,1,.842V3.338a.931.931,0,0,1-1,.842.931.931,0,0,1-1-.842V.811A.931.931,0,0,1,.969-.031Z" transform="translate(13.651 15.023) rotate(-45)" fill="#fff"/>
  <g id="Ellipse_1" data-name="Ellipse 1" fill="none" stroke="#fff" stroke-width="2">
    <ellipse cx="9" cy="9" rx="9" ry="9" stroke="none"/>
    <ellipse cx="9" cy="9" rx="8" ry="8" fill="none"/>
  </g>
</svg>
