<svg xmlns="http://www.w3.org/2000/svg" width="21" height="24" viewBox="0 0 21 24">
  <path id="calendar-day-solid" d="M0,21.75A2.251,2.251,0,0,0,2.25,24h16.5A2.251,2.251,0,0,0,21,21.75V9H0Zm3-9A.752.752,0,0,1,3.75,12h4.5a.752.752,0,0,1,.75.75v4.5a.752.752,0,0,1-.75.75H3.75A.752.752,0,0,1,3,17.25ZM18.75,3H16.5V.75A.752.752,0,0,0,15.75,0h-1.5a.752.752,0,0,0-.75.75V3h-6V.75A.752.752,0,0,0,6.75,0H5.25A.752.752,0,0,0,4.5.75V3H2.25A2.251,2.251,0,0,0,0,5.25V7.5H21V5.25A2.251,2.251,0,0,0,18.75,3Z" fill="#fff"/>
</svg>
